<!-- https://www.svgrepo.com/svg/492714/business-person-pointing-finger-left-hand -->
<svg width="180px" height="180px" viewBox="-28.93 0 326.261 326.261"
    xmlns="http://www.w3.org/2000/svg" fill="#000000">
    <style>
        .f {
            animation: blink 3s infinite;
            transform-box: fill-box;
            transform-origin: 50% 50%;
            fill:#211715;
        }

        @keyframes blink {
            0%, 10%, 90% {
                transform: none;
            }
            8% {
                transform: scaleY(0.3);
            }
        }
    </style>
    <g id="SVGRepo_bgCarrier" stroke-width="0"></g>
    <g id="SVGRepo_tracerCarrier" stroke-linecap="round" stroke-linejoin="round"></g>
    <g id="SVGRepo_iconCarrier">
        <defs>
            <style>.a{fill:#957f6e;}.b{fill:#ffffff;}.c{fill:#211715;}.d{fill:#b3b3b3;}</style>
        </defs>
        <path class="a"
            d="M158.264,168.3c8.58-1.87,14.56-10.47,14.5-18a53.434,53.434,0,0,0-2.94-17.09c-2.41-7.51-7.094-22.765-7.424-50.045.672-7.677-.026-18.767-.329-23.029-1.053-14.775-7.659-31.275-17.164-40.445-4.11-3.965-5.3-5.816-9.777-8.244l-10.736-5.24c-6.608-2.546-12.752-3.77-24.347-3.77-19.011,0-35.932,9.794-43.441,16.982C44.15,31.348,36.247,53.124,37.244,83.161c.01,21.89-1.66,37.68-4,46.65-.33,1.27-.65,2.72-.95,4.28a56.023,56.023,0,0,0-2.73,16.3c-.09,4.74.73,10.07,4.53,12.92,2.53,2.22,6.83,4.88,11.46,4.99Z"></path>
        <path class="b"
            d="M79.891,148.333a43.16,43.16,0,0,0,.313-6.9,41.59,41.59,0,0,1-15.242-11.915,49.422,49.422,0,0,1-9.452-18.53,11.656,11.656,0,0,1-7.488-2.67,18.445,18.445,0,0,1-4.768-6.257A29.019,29.019,0,0,1,40.3,86.687a9.677,9.677,0,0,1,1.013-3.894,6.85,6.85,0,0,1,4.923-3.273,7.239,7.239,0,0,1,5.434,1.407c3.512-1.432,13.3-5.935,15.9-7.475a117.746,117.746,0,0,0,12.257-8.245,50.427,50.427,0,0,0,6.459-1.183,49.1,49.1,0,0,0,4.8-1.267c12.332-3.995,26.182-12.527,32.405-20.135,1.316,7.067,3.342,14.072,10.426,24.128,3.445,4.889,8.445,11,15.438,14.468a7.252,7.252,0,0,1,5.8-1.7,6.85,6.85,0,0,1,4.923,3.273,9.677,9.677,0,0,1,1.013,3.894,29.01,29.01,0,0,1-2.957,15.378,18.445,18.445,0,0,1-4.768,6.257,12.223,12.223,0,0,1-5.685,2.562l-.973.151c-.466,1.746-.991,3.217-1.248,4-1.7,4.627-11.481,20.983-23.632,26.2-.021,3.276-.093,7.052,1.059,9.886.87,2.15,4.95,5.34,9.24,8.24,0,0,2.2,34.13-31.466,34.13-32.111,0-31.184-34.34-31.184-34.34,4.58-2.84,8.83-5.93,9.68-8.03A12.939,12.939,0,0,0,79.891,148.333Z"></path>
        <path class="c"
            d="M34.844,83.161c0,12.76-.35,25.861-2.356,38.363-.332,2.07-.717,4.134-1.2,6.176-.308,1.315-.66,2.617-.945,3.938-.413,1.92-1,3.777-1.474,5.684A59.505,59.505,0,0,0,27.2,149.206a26.976,26.976,0,0,0,1.017,9.5c2.306,6.953,10.221,11.708,17.339,12,3.089.124,3.083-4.676,0-4.8a15.909,15.909,0,0,1-8.414-3.219,10.55,10.55,0,0,1-4.456-5.761,25.929,25.929,0,0,1-.627-8.9A52.863,52.863,0,0,1,33.924,137a151.887,151.887,0,0,0,4.969-30.236c.554-7.853.75-15.728.751-23.6,0-3.089-4.8-3.094-4.8,0Z"></path>
        <path class="c"
            d="M160,83.164a184.05,184.05,0,0,0,4.279,39.148c.824,3.558,1.809,7.074,2.912,10.555a74.925,74.925,0,0,1,2.452,9.246,31.935,31.935,0,0,1,.582,10.215,16.963,16.963,0,0,1-12.6,13.662c-3.01.691-1.736,5.32,1.276,4.628a21.591,21.591,0,0,0,14.689-12.811c2.842-6.772,1.467-14.874-.408-21.737-1.1-4.022-2.489-7.951-3.529-11.992a143.394,143.394,0,0,1-3.037-15.412,198.654,198.654,0,0,1-1.813-25.5c-.041-3.086-4.841-3.095-4.8,0Z"></path>
        <path class="c"
            d="M151.047,82.915a4.753,4.753,0,0,1,6.778.793A8.138,8.138,0,0,1,158.771,88a25.469,25.469,0,0,1-.3,5.263C157.4,99.609,154.1,107.34,147.04,108.57a2.42,2.42,0,0,0-1.676,2.952,2.455,2.455,0,0,0,2.952,1.677c9.711-1.692,14.351-12.708,15.157-21.474.389-4.242.281-9.548-3.3-12.474a9.712,9.712,0,0,0-12.518.27,2.42,2.42,0,0,0,0,3.394,2.45,2.45,0,0,0,3.394,0Z"></path>
        <path class="c"
            d="M145.2,105.486a24.092,24.092,0,0,1-1.127,6.024c-.228.771-.48,1.535-.736,2.3-.078.233-.158.464-.238.7-.161.469-.095.235-.033.1a50.732,50.732,0,0,1-3.237,5.924A57.5,57.5,0,0,1,127,135.322a24.372,24.372,0,0,1-9.466,4.786c-3.009.694-1.736,5.323,1.276,4.628,7.306-1.685,13.425-6.942,18.242-12.459a62.653,62.653,0,0,0,10.014-14.913A32.1,32.1,0,0,0,150,105.486c.106-3.089-4.694-3.085-4.8,0Z"></path>
        <path class="c"
            d="M53.732,79.521a9.712,9.712,0,0,0-12.518-.27c-3.583,2.926-3.691,8.232-3.3,12.474.805,8.766,5.445,19.782,15.156,21.474a2.47,2.47,0,0,0,2.952-1.677,2.42,2.42,0,0,0-1.676-2.952c-7.063-1.23-10.361-8.961-11.434-15.306a25.542,25.542,0,0,1-.3-5.263,8.277,8.277,0,0,1,.946-4.293,4.747,4.747,0,0,1,6.778-.793,2.464,2.464,0,0,0,3.394,0,2.42,2.42,0,0,0,0-3.394Z"></path>
        <path class="c"
            d="M52.177,107.443c3.071,14.516,11.639,28.664,25.318,35.38a34.3,34.3,0,0,0,11.661,3.341,2.416,2.416,0,0,0,2.4-2.4,2.454,2.454,0,0,0-2.4-2.4c-13.461-1.4-24.472-13.04-29.313-25.052a60.68,60.68,0,0,1-3.037-10.145c-.639-3.02-5.267-1.742-4.629,1.276Z"></path>
        <path class="c"
            d="M125.032,3.9C116.282.547,106.723-.331,97.408.1A69.9,69.9,0,0,0,66.686,9.229a54.421,54.421,0,0,0-17.62,15.26,69.616,69.616,0,0,0-10.49,22.72c-3.2,11.664-4.114,23.907-3.731,35.96.1,3.081,4.9,3.094,4.8,0-.578-18.2,1.656-37.864,11.7-53.526a47.174,47.174,0,0,1,14.8-14.5A66.147,66.147,0,0,1,93.511,5.219a78.612,78.612,0,0,1,17.938.183,51.133,51.133,0,0,1,12.307,3.123,2.418,2.418,0,0,0,2.952-1.676A2.453,2.453,0,0,0,125.032,3.9Z"></path>
        <path class="c"
            d="M164.8,83.169a126.342,126.342,0,0,0,.059-16.465,106.377,106.377,0,0,0-1.439-14.626c-2.077-11.125-6.633-22.252-13.938-30.981-1.922-2.3-4.129-4.346-6.246-6.459a30.6,30.6,0,0,0-6.895-5.259c-2.708-1.491-5.133,2.653-2.423,4.144a24.493,24.493,0,0,1,5.455,4.044c1.867,1.829,3.779,3.648,5.54,5.579A52.3,52.3,0,0,1,153.37,36.28a70.924,70.924,0,0,1,5.11,15.5A88.545,88.545,0,0,1,160,65.51a130.9,130.9,0,0,1,0,17.659,2.419,2.419,0,0,0,2.4,2.4,2.449,2.449,0,0,0,2.4-2.4Z"></path>
        <path class="c"
            d="M119.424,141.234a50.569,50.569,0,0,0,.209,6.337,12.522,12.522,0,0,0,1.69,5.667c2.372,3.425,6.2,5.888,9.589,8.188a2.4,2.4,0,1,0,2.423-4.144c-1.614-1.095-3.218-2.214-4.728-3.45-.661-.541-1.308-1.1-1.922-1.7-.268-.26-.53-.526-.78-.8-.127-.14-.25-.283-.371-.428-.245-.294.264.432-.066-.091-.145-.23-.29-.45-.413-.693-.132-.26.131.388-.006-.038-.072-.226-.152-.448-.218-.676a13.87,13.87,0,0,1-.449-2.294,53.655,53.655,0,0,1-.158-5.88c.019-3.089-4.78-3.093-4.8,0Z"></path>
        <path class="c"
            d="M77.8,141.444a51.44,51.44,0,0,1-.165,5.757,14.206,14.206,0,0,1-.482,2.362c-.067.222-.142.439-.219.658.054-.152.135-.232.017-.045-.085.133-.549.819-.213.393-2.189,2.771-5.51,4.655-8.48,6.5a2.4,2.4,0,1,0,2.423,4.144c1.939-1.206,3.852-2.459,5.668-3.846a20.629,20.629,0,0,0,4.277-4.045,11.19,11.19,0,0,0,1.7-5.211,47.924,47.924,0,0,0,.278-6.67c-.02-3.088-4.82-3.094-4.8,0Z"></path>
        <path class="c"
            d="M93.081,47.868A65.225,65.225,0,0,1,77.3,64.133,99.35,99.35,0,0,1,60.138,74.5q-2.475,1.17-4.972,2.3-1.095.493-2.2.978-.484.215-.971.424l-.337.145c-.7.3.4-.165-.24.1A2.48,2.48,0,0,0,49.746,81.4,2.415,2.415,0,0,0,52.7,83.079a147.137,147.137,0,0,0,15.811-7.4A97.7,97.7,0,0,0,88.549,60.808a62.5,62.5,0,0,0,8.677-10.517c1.69-2.6-2.464-5-4.145-2.423Z"></path>
        <path class="c"
            d="M79.912,67.594c13.577-1.611,26.744-7.776,37.524-16.067a48.18,48.18,0,0,0,7.581-7.006,2.465,2.465,0,0,0,0-3.394,2.419,2.419,0,0,0-3.394,0c-5.026,5.962-11.9,10.37-18.734,13.98-7.144,3.774-14.908,6.73-22.977,7.687a2.475,2.475,0,0,0-2.4,2.4,2.415,2.415,0,0,0,2.4,2.4Z"></path>
        <path class="c"
            d="M150.561,79.145c-7.2-3.637-12.4-10.057-16.68-16.73A55.637,55.637,0,0,1,126,43.075a2.4,2.4,0,1,0-4.628,1.276,57.21,57.21,0,0,0,5.508,15.626A69.187,69.187,0,0,0,138.6,76.214a37.281,37.281,0,0,0,9.536,7.076c2.75,1.39,5.183-2.75,2.422-4.145Z"></path>
        <path class="c"
            d="M92.833,120.339a19.4,19.4,0,0,0,9.349,2.163,15.2,15.2,0,0,0,9.427-2.778,2.412,2.412,0,0,0,0-3.394,2.462,2.462,0,0,0-3.394,0c.726-.565.155-.128-.031-.008s-.382.232-.579.335c-.164.086-.874.368-.221.126-.266.1-.528.2-.8.291a14.03,14.03,0,0,1-2.236.51c.351-.052-.085.006-.221.02-.22.021-.439.04-.659.054-.529.034-1.059.047-1.589.044-.475,0-.949-.019-1.423-.051-.217-.015-.434-.032-.651-.054-.019,0-.8-.11-.324-.035A16.013,16.013,0,0,1,97.4,117.1c-.293-.087-.578-.192-.866-.291-.616-.211.344.179-.212-.083q-.537-.253-1.061-.53a2.453,2.453,0,0,0-3.284.861,2.427,2.427,0,0,0,.861,3.284Z"></path>
        <path class="c"
            d="M100.977,98.3a44,44,0,0,1,1.034,4.732l-.085-.638a2.91,2.91,0,0,1,.017.653l.086-.638a1.558,1.558,0,0,1-.072.294l.242-.574a1.12,1.12,0,0,1-.1.189l.376-.486a.975.975,0,0,1-.155.153l.486-.375a3.27,3.27,0,0,1-.375.2l.573-.242a2.719,2.719,0,0,1-.631.184l.638-.085a2.557,2.557,0,0,1-.593,0l.638.085c-.224-.031-.443-.085-.667-.115a1.812,1.812,0,0,0-.957-.043,1.774,1.774,0,0,0-.892.285,2.4,2.4,0,0,0-.861,3.283,2.3,2.3,0,0,0,1.434,1.1c.507.068,1,.2,1.513.22a4.847,4.847,0,0,0,2.228-.529,3.208,3.208,0,0,0,1.78-2.116,5.328,5.328,0,0,0-.022-2.283c-.258-1.524-.61-3.035-1-4.53a2.4,2.4,0,1,0-4.629,1.276Z"></path>
        <path class="f"
            d="M75.93,84.9c-.79,2.568-.275,8.476,4.59,8.979,6.431-.039,6.773-7.181,4.608-10.539C83.356,80.591,78.145,79.448,75.93,84.9Z">
            <animate attributeName="transform" attributeType="XML" from="1 1" to="0.3 0.3" dur="4s" repeatCount="1" fill="freeze" />
            <animate attributeName="transform" attributeType="XML" from="0.3 0.3" to="1 1" dur="4s" repeatCount="1" fill="freeze" begin="4s" />
        </path>
        <path class="f"
            d="M127.424,84.9c.79,2.568.275,8.475-4.59,8.978-6.43-.039-6.773-7.181-4.608-10.539C120,80.591,125.209,79.448,127.424,84.9Z"></path>
        <path class="d"
            d="M98.652,242.892q1.313,3.573,2.588,7.1c4.929-13.765,8.553-23.512,13.406-37.041,6.414-17.878,14.064-38.474,18.539-56.808.63.439,4.491,3.054,4.491,3.054q.4.306.786.611c9.852,6.278,23.425,9.714,34.332,14.982,2.972,1.436,6.461,2.11,8.713,4.523a25.155,25.155,0,0,1,5.24,8.551c7.107,18.555,7.988,28.705,15.874,48.313,2.935-7.009,5.688-13.827,8.73-21.289,9.682,5.1,25.109,12.166,34.788,14.265-4.825,15.449-9.666,32.069-16.467,47.541-4.725,10.749-11.193,20.768-22.548,23.756a29,29,0,0,1-25.071-4.605c-6.134-4.482-12.89-13.562-17.14-18.93l-.244-.308v2.817c0,6.94,2.54,30.24,3.58,44.44H2.406C5.369,264.9,8.137,213.641,13.737,194.972c1.611-5.369,3.64-10.116,6.325-12.263s7.148-3.574,10.25-5.073c9.043-4.367,20.946-9.714,28.543-14.3a60.167,60.167,0,0,1,4.637-3.929l4.592-3.111.08-.056c5.942,17.676,12.786,38.087,19.18,55.908C90.936,222.164,94.889,232.653,98.652,242.892Z"></path>
        <path class="b"
            d="M100.305,181.952c-.215,0-.428,0-.639,0a101.58,101.58,0,0,1-23.18-3.331l-.886-.315c3.881,11.444,7.894,23.113,11.744,33.843,4.427,12.343,9.4,25.41,13.9,37.838,4.929-13.765,8.553-23.512,13.406-37.041,4.059-11.316,8.615-23.721,12.546-35.952l-2.395.936C117.782,180.722,107.655,181.9,100.305,181.952Z"></path>
        <path class="b"
            d="M231.541,163.068c1.956-7.739,7.45-27.049,9.472-29.629,1.45-1.851,3.168-3.277,6.354-1.918,2.731,1.165,2.288,4.318,1.772,6.924-.569,2.87-3.952,16.41-5.928,23.445a5.413,5.413,0,0,1,6.138-1.391c2.166.989,3,2.836,2.759,4.171,0,0-.19,1.045-.467,2.549a5.254,5.254,0,0,1,5.069.027c1.872,1,3.757,3.684,2.835,5.619l-1.236,2.594.386-.317c2.377-1.955,6.5-.751,7.175,1.855.514,2-.355,4.36-1.468,6.189l-.423.694c-.139.428-.217.67-.217.67-1.51,4.674-4.448,11.816-8.851,16.906-2.044,2.359-4.4,4.7-6.257,7.232s-2.314,5.344-3.218,8.372l-.4,1.34c-4.789-1.77-18.264-6.805-25.434-10.22l.255-.717c.705-3.255,1.482-7.486,1.021-10.243a69.572,69.572,0,0,0-3.11-9.122,16.922,16.922,0,0,1-1.3-7.631c.326-2.965,1.094-7.205,3.3-10.3a5.979,5.979,0,0,1,1.61-1.519,1.54,1.54,0,0,1,.226-.136c2.627-1.61,6.081-1.617,9.058-1.49l.249-1.266C231.011,165.226,231.232,164.291,231.541,163.068Z"></path>
        <path class="b"
            d="M246.25,218.848c-3.289-1.21-20.916-7.7-28.167-11.413-.826,1.653-2.561,5.718-3.622,7.9l-.458.926c8.581,4.366,20.294,9.633,29,12.1.244-.61.42-1.053.441-1.114.922-2.745,2.752-7.49,3.111-8.283Z"></path>
        <path class="c"
            d="M245.755,227.881c.627-1.55,1.2-3.12,1.773-4.69.248-.679.494-1.359.743-2.037.108-.295.216-.591.328-.885.067-.176.388-.932.025-.1a2.453,2.453,0,0,0-1.434-3.526q-6.081-2.24-12.127-4.577a171.22,171.22,0,0,1-15.768-6.706,2.434,2.434,0,0,0-3.284.861c-1.282,2.6-2.363,5.29-3.622,7.9a2.465,2.465,0,0,0,.861,3.284,2.422,2.422,0,0,0,3.284-.861c1.259-2.609,2.339-5.3,3.622-7.9l-3.284.861c5.357,2.728,11.025,4.893,16.62,7.074q6.186,2.412,12.422,4.693l-1.434-3.526c-1.258,2.893-2.17,5.932-3.353,8.857a2.415,2.415,0,0,0,1.676,2.952,2.459,2.459,0,0,0,2.952-1.676Z"></path>
        <path class="c"
            d="M75.848,180.937a93.618,93.618,0,0,0,25.2,3.407c8.146-.133,16.763-1.112,24.392-4.1a2.472,2.472,0,0,0,1.676-2.952,2.417,2.417,0,0,0-2.952-1.676c-7.265,2.844-15.359,3.8-23.116,3.926a88.634,88.634,0,0,1-23.919-3.235c-2.989-.792-4.264,3.837-1.276,4.628Z"></path>
        <path class="c"
            d="M89.586,260.817a6.237,6.237,0,0,1,.738.786l-.375-.486a5.234,5.234,0,0,1,.6,1.013l-.241-.573a4.968,4.968,0,0,1,.338,1.22l-.086-.638a5.4,5.4,0,0,1,0,1.362l.086-.638a5.955,5.955,0,0,1-.393,1.437l.242-.573a4.906,4.906,0,0,1-.576,1.017l.375-.486a4.293,4.293,0,0,1-.757.749l.485-.375a5.166,5.166,0,0,1-1.076.615l.573-.242a6.047,6.047,0,0,1-1.4.375l.638-.085a6.429,6.429,0,0,1-1.634,0l.638.086a5.659,5.659,0,0,1-1.342-.357l.574.242a4.45,4.45,0,0,1-.914-.523l.486.375a5.418,5.418,0,0,1-.89-.888l.375.486a4.671,4.671,0,0,1-.6-1.017l.242.573a4.381,4.381,0,0,1-.257-.962l.085.638a4.747,4.747,0,0,1,0-1.167l-.086.638a5.8,5.8,0,0,1,.4-1.421l-.242.573a7.338,7.338,0,0,1,.924-1.549l-.375.486a4.48,4.48,0,0,1,.715-.735l-.486.375a4.844,4.844,0,0,1,.984-.575l-.573.242a5.715,5.715,0,0,1,1.441-.389l-.638.086a5.767,5.767,0,0,1,1.42,0l-.638-.086a5.138,5.138,0,0,1,1.169.313l-.574-.242a4.368,4.368,0,0,1,.955.557l-.486-.375c.054.042.106.085.157.13a2.554,2.554,0,0,0,1.7.7,2.4,2.4,0,0,0,1.7-4.1,7.131,7.131,0,0,0-4.585-1.75,7.537,7.537,0,0,0-4.182,1.145,8,8,0,0,0-3.358,8.064,6.953,6.953,0,0,0,2.863,4.062,7.776,7.776,0,0,0,10.758-2.454,7.785,7.785,0,0,0,.9-4.164,7.406,7.406,0,0,0-2.4-4.9,2.4,2.4,0,0,0-3.394,3.394Z"></path>
        <path class="c"
            d="M102.125,323.861c2-18.366,4.229-36.676,5.052-55.144a45.153,45.153,0,0,0-.272-8.373,40.7,40.7,0,0,0-2.512-8.677,2.468,2.468,0,0,0-2.952-1.676,2.419,2.419,0,0,0-1.677,2.952,42.8,42.8,0,0,1,2.345,7.612,33.6,33.6,0,0,1,.31,7.158c-.189,4.968-.541,9.932-.885,14.891-.616,8.911-1.6,17.783-2.582,26.66-.541,4.866-1.1,9.73-1.627,14.6a2.416,2.416,0,0,0,2.4,2.4,2.455,2.455,0,0,0,2.4-2.4Z"></path>
        <path class="c"
            d="M140.761,163.927c6.08,3.23,12.576,5.586,19,8.025,3.068,1.166,6.138,2.338,9.139,3.668,1.441.638,2.849,1.347,4.3,1.952,1.343.559,2.739,1.011,4.045,1.655,5.592,2.759,7.561,10.032,9.438,15.448,2.049,5.912,3.767,11.925,5.492,17.937,2.017,7.028,4.2,13.994,6.805,20.828a2.469,2.469,0,0,0,2.952,1.676,2.418,2.418,0,0,0,1.677-2.952c-4.637-12.149-7.585-24.8-11.73-37.1-2.116-6.283-4.2-13.779-9.5-18.218-2.453-2.053-5.533-2.795-8.373-4.128-3.043-1.429-6.133-2.739-9.263-3.966-7.244-2.838-14.669-5.307-21.558-8.967-2.727-1.448-5.155,2.693-2.423,4.145Z"></path>
        <path class="c"
            d="M4.8,323.861C6.246,295.229,7.571,266.565,10,238c.843-9.932,1.8-19.936,3.329-29.551.551-3.457,1.177-6.909,2.03-10.305a60.928,60.928,0,0,1,2.02-6.509c.925-2.469,2.091-5.308,4.169-7.043,2.532-2.114,6.046-3.106,9.013-4.429,3.294-1.469,6.525-3.1,9.783-4.649,6.653-3.16,13.368-6.291,19.695-10.077,2.648-1.584.237-5.736-2.423-4.145-5.718,3.422-11.761,6.295-17.77,9.162-3,1.429-6,2.842-8.994,4.277-2.911,1.4-5.946,2.53-8.832,3.973a15.471,15.471,0,0,0-6.626,5.94,40.854,40.854,0,0,0-3.839,9.259,85.381,85.381,0,0,0-2.29,9.93c-1.712,9.533-2.71,19.2-3.595,28.839-1.193,13-2.064,26.018-2.853,39.042C1.76,289.087.88,306.474,0,323.861c-.156,3.087,4.645,3.079,4.8,0Z"></path>
        <path class="c"
            d="M130.776,155.889c-3.058,12.374-7.1,24.486-11.318,36.5-4.2,11.962-8.535,23.878-12.87,35.791q-3.624,9.959-7.219,19.928a2.422,2.422,0,0,0,1.676,2.952A2.449,2.449,0,0,0,104,249.388c8.595-23.953,17.8-47.735,25.58-71.971,2.146-6.69,4.142-13.43,5.828-20.252.741-3-3.887-4.278-4.629-1.276Z"></path>
        <path class="c"
            d="M118.859,244.566q9.054-12.936,17.487-26.293,4.264-6.762,8.363-13.627c2.667-4.469,5.448-8.93,7.86-13.543a4.475,4.475,0,0,0,.183-4.324,14.031,14.031,0,0,0-2.825-3.164c-2.124-2.092-4.331-4.1-6.547-6.088l-.486,3.77c1.979-1.175,3.93-2.4,5.95-3.509,1.964-1.074,4.766-1.974,4.044-4.847a16.39,16.39,0,0,0-2.846-4.989,39.639,39.639,0,0,0-3.7-4.4,75.307,75.307,0,0,0-12.049-9.541c-2.564-1.737-4.968,2.419-2.422,4.144l2.9,1.963a38.188,38.188,0,0,1,3.424,2.527,52.482,52.482,0,0,1,5.847,5.466,28.189,28.189,0,0,1,2.308,2.9q.5.728.952,1.484.254.423.491.853c.058.1.388.836.386.621l.328-1.211-.163.258.861-.861a41.866,41.866,0,0,1-4.2,2.285c-1.523.882-3.02,1.81-4.534,2.708a2.422,2.422,0,0,0-.486,3.769c1.809,1.625,3.61,3.259,5.365,4.941q1.272,1.217,2.506,2.473c.055.055.511.628.648.668-.082-.024.012-.49,0-.474-.267.526-.579,1.033-.87,1.546q-3.707,6.526-7.563,12.967-7.608,12.7-15.79,25.053-4.693,7.086-9.571,14.049a2.421,2.421,0,0,0,.861,3.283,2.45,2.45,0,0,0,3.284-.861Z"></path>
        <path class="c"
            d="M37.569,323.861c.747-10.132,1.787-20.241,2.661-30.362.344-3.983.7-7.972.867-11.967a54.75,54.75,0,0,0-.426-8.487c-1.976-17.443-5.829-34.6-8.586-51.925-.938-5.893-1.825-11.8-2.806-17.681a93.29,93.29,0,0,0-2.415-11.916c-.9-2.946-5.535-1.69-4.629,1.276a82.177,82.177,0,0,1,2.119,10.158c.875,5.109,1.654,10.234,2.457,15.354,1.412,9,3.051,17.95,4.68,26.914,1.521,8.362,3.021,17.048,4.073,25.281a68.98,68.98,0,0,1,.784,9.22c-.028,3.506-.358,7.019-.643,10.511-.917,11.213-2.109,22.4-2.936,33.624a2.4,2.4,0,0,0,4.8,0Z"></path>
        <path class="c"
            d="M175.315,190.933c-2.481,18.424-4.842,36.823-8.172,55.121-1.55,8.514-3.089,17.042-4.2,25.627a57.152,57.152,0,0,0-.663,8.713c.088,3.55.4,7.1.7,10.637.909,10.947,2.063,21.874,2.869,32.83a2.459,2.459,0,0,0,2.4,2.4,2.42,2.42,0,0,0,2.4-2.4c-.721-9.792-1.717-19.563-2.571-29.343-.585-6.692-1.387-13.415-.658-20.12.862-7.923,2.393-16.211,3.847-24.282,1.6-8.868,3.179-17.729,4.489-26.647.909-6.184,1.746-12.378,2.553-18.576q.483-3.711.955-7.423.2-1.578.405-3.155.087-.68.176-1.359c.029-.217.183-1.372.1-.747a2.485,2.485,0,0,0-1.677-2.953,2.417,2.417,0,0,0-2.952,1.677Z"></path>
        <path class="c"
            d="M65.918,157.085C74.293,182,82.758,206.874,91.9,231.523c2.646,7.139,5.3,14.275,7.871,21.441a2.462,2.462,0,0,0,2.952,1.676,2.421,2.421,0,0,0,1.676-2.952c-4.583-12.768-9.421-25.442-14.028-38.2-4.452-12.331-8.7-24.735-12.9-37.151q-3.475-10.258-6.916-20.527c-.979-2.913-5.617-1.664-4.629,1.276Z"></path>
        <path class="c"
            d="M86.62,242.672Q69.565,218.3,54.758,192.465q-.533-.93-1.062-1.862c-.156-.276-.314-.551-.469-.828-.062-.11-.418-.923-.381-.594.007.063.045.3-.016.351.343-.3.657-.679.976-1q.66-.667,1.331-1.322c2.021-1.972,4.111-3.871,6.212-5.758a2.421,2.421,0,0,0-.486-3.769c-1.514-.9-3.011-1.825-4.534-2.709a41.843,41.843,0,0,1-4.2-2.284l.861.861-.164-.259.328,1.212c0,.18.25-.376.29-.45q.234-.436.481-.866.494-.855,1.039-1.679a30.483,30.483,0,0,1,2.257-3,48.25,48.25,0,0,1,5.76-5.631,33.7,33.7,0,0,1,3.415-2.543l2.9-1.963c2.543-1.723.144-5.883-2.423-4.144A66.591,66.591,0,0,0,54.9,163.909a42.005,42.005,0,0,0-3.635,4.521,17.664,17.664,0,0,0-2.819,5.039c-.731,2.774,1.93,3.7,3.842,4.737,2.093,1.132,4.107,2.405,6.152,3.619l-.485-3.769c-1.984,1.782-3.959,3.575-5.874,5.43-1.734,1.679-4.155,3.486-3.977,6.15a8.365,8.365,0,0,0,1.448,3.39q1.057,1.864,2.128,3.721,1.905,3.3,3.848,6.583,8.094,13.662,16.848,26.918,4.948,7.493,10.1,14.847a2.465,2.465,0,0,0,3.284.861,2.421,2.421,0,0,0,.861-3.284Z"></path>
        <path class="c"
            d="M196.339,256.607c6.121-13.549,11.715-27.318,17.326-41.084l-3.526,1.435q8.611,4.527,17.58,8.336a102.782,102.782,0,0,0,17.782,6.17l-1.676-2.952c-2.942,9.423-5.779,18.882-9,28.216-3.016,8.742-6.156,17.684-10.689,25.776-3.555,6.347-8.479,12.432-15.536,14.972a27.109,27.109,0,0,1-23.79-2.646c-3.782-2.422-6.89-5.827-9.808-9.2s-5.628-6.916-8.393-10.414a2.413,2.413,0,0,0-3.394,0,2.459,2.459,0,0,0,0,3.394c5.236,6.623,10.309,13.735,17.083,18.9a31.721,31.721,0,0,0,25.707,5.666c18.681-3.861,25.891-24.24,31.641-40.061,3.99-10.98,7.327-22.178,10.806-33.325a2.422,2.422,0,0,0-1.676-2.953,97.858,97.858,0,0,1-17-5.842q-8.767-3.727-17.21-8.18a2.447,2.447,0,0,0-3.526,1.434c-5.454,13.383-10.892,26.766-16.842,39.938a2.472,2.472,0,0,0,.861,3.283,2.419,2.419,0,0,0,3.284-.861Z"></path>
        <path class="c"
            d="M233.221,166.4c.635-3.184,1.573-6.325,2.44-9.45,1.317-4.743,2.694-9.472,4.216-14.153.615-1.9,1.25-3.787,1.975-5.643.076-.2.156-.387.232-.582.177-.451-.036.074.012-.033.133-.3.265-.6.412-.9.108-.217.227-.426.343-.638.042-.077.095-.15.143-.224.029-.043.12-.165-.024.03-.191.259.184-.208.224-.252.758-.825,1.246-1.325,2.361-1.111a2.485,2.485,0,0,1,1.338.634,2.219,2.219,0,0,1,.23,1.114,24.564,24.564,0,0,1-.992,5.688q-2.3,9.713-4.942,19.347c-.819,2.983,3.81,4.256,4.628,1.276q2.574-9.376,4.823-18.845a35.645,35.645,0,0,0,1.28-7.007,6.614,6.614,0,0,0-6.768-7.063c-5.2-.079-7.193,5.156-8.634,9.187-1.719,4.813-3.163,9.729-4.567,14.641-1.2,4.195-2.5,8.424-3.359,12.709a2.462,2.462,0,0,0,1.677,2.952,2.423,2.423,0,0,0,2.952-1.676Z"></path>
        <path class="c"
            d="M261.447,183.912c-1.746,5.363-4.129,10.84-7.722,15.239-2.222,2.719-4.772,5.144-6.875,7.966-2.061,2.766-2.776,6.059-3.728,9.305-.871,2.97,3.759,4.239,4.628,1.276.9-3.066,1.515-6.019,3.567-8.563,2.219-2.751,4.79-5.194,6.919-8.02a54.389,54.389,0,0,0,7.84-15.927c.959-2.944-3.675-4.206-4.629-1.276Z"></path>
        <path class="c"
            d="M232.7,184.288a22.529,22.529,0,0,1,.595-2.68,13.34,13.34,0,0,1,.641-2.475c.509-.978,1.946-.955,2.926-1.092a5.753,5.753,0,0,0,5.809-6.168,7.756,7.756,0,0,0-1.8-4.756,6.843,6.843,0,0,0-4.142-1.921,38.62,38.62,0,0,0-10.628-.455c-3.271.372-6.426,1.434-8.41,4.218a24.051,24.051,0,0,0-3.134,17.11,14.507,14.507,0,0,0,1.238,3.448c.057.113.244.582.013.018.078.19.153.382.227.573.179.46.348.923.516,1.387q.654,1.816,1.246,3.655a14.821,14.821,0,0,0,.718,2.423c.189.346-.056-.619-.04-.353.028.46.113.905.13,1.368a20.34,20.34,0,0,1-.11,2.737,49.061,49.061,0,0,1-.956,5.5c-.647,3.012,3.979,4.3,4.629,1.276a41.639,41.639,0,0,0,1.245-9.144,16.774,16.774,0,0,0-.176-2.051c.1.734-.056-.442-.12-.722-.159-.7-.4-1.386-.613-2.067-.589-1.844-1.208-3.686-1.919-5.487a20.159,20.159,0,0,1-1.648-5.236,17.933,17.933,0,0,1,.543-6.453c.556-2.323,1.4-5.359,3.673-6.551a7.384,7.384,0,0,1,1.705-.6c.361-.089.728-.166,1.094-.228.986-.168-.8.04.611-.07a36.445,36.445,0,0,1,4.968-.022,37.3,37.3,0,0,1,3.922.355,5.82,5.82,0,0,1,1.761.436c.108.066.281.279.127.074a4.073,4.073,0,0,1,.45,1.067,1.88,1.88,0,0,1-.251,1.523c-.587,1.092-.258.35-.185.282.349-.326.081-.1-.259-.024a28.037,28.037,0,0,0-4.142.819,6,6,0,0,0-3.53,3.535,28.306,28.306,0,0,0-1.352,5.475,2.479,2.479,0,0,0,1.676,2.952,2.418,2.418,0,0,0,2.952-1.676Z"></path>
        <path class="c"
            d="M250.235,183.557c-.792,2.8,1.19,6.24,3.716,7.49a8.236,8.236,0,0,0,8.859-1.6,18.767,18.767,0,0,0,2.774-3.607,22.519,22.519,0,0,0,2.15-4.059c1.062-2.781,1.049-6.305-1.449-8.315a7.6,7.6,0,0,0-4.6-1.687A7.13,7.13,0,0,0,257,173.445a2.4,2.4,0,0,0,0,3.394,2.474,2.474,0,0,0,3.394,0c-.371.292-.034.061.155-.055.484-.3-.258.041.123-.059.066-.017.6-.215.651-.163.022.024-.512.023-.222.032.138,0,.28-.019.419-.019s.69-.045.35,0c-.316.041-.044-.011.093.022.08.02.162.035.243.055.1.026.572.111.627.2.018.029-.435-.239-.2-.077.107.074.239.123.353.191a2.43,2.43,0,0,1,.266.173c-.008.03-.359-.333-.176-.136.12.129.26.25.386.375.315.316-.122-.1-.1-.127,0,0,.171.277.157.256.056.085.09.287.007-.015-.106-.382.006.057.028.141a3.737,3.737,0,0,1,.087.418c-.01-.064,0-.36-.03-.1s0,.513-.008.765c-.026.473-.017.128,0,.026-.027.148-.056.3-.09.443-.069.3-.155.593-.253.883-.049.146-.1.29-.158.435.017-.044.131-.294.019-.039s-.226.488-.351.726c-.256.49-.549.961-.838,1.432-.258.42-.519.837-.79,1.249q-.243.368-.5.73c-.076.107-.556.736-.279.391a10.413,10.413,0,0,1-.954,1.059c-.091.086-.184.166-.277.249.071-.064.412-.266.036-.04a7.842,7.842,0,0,1-.691.379c.425-.2-.128.03-.287.077-.232.068-.466.119-.7.166-.461.092-.064,0,.028,0-.136.006-.269.02-.4.023a6.086,6.086,0,0,1-.787-.031c.695.072-.269-.035-.265-.105,0-.1.5.281.175.07a3.386,3.386,0,0,0-.333-.205c-.247-.123.18.126.155.123-.072-.008-.26-.236-.32-.3-.085-.085-.164-.175-.247-.262-.1-.108-.282-.443-.025-.018-.128-.212-.275-.41-.394-.629-.058-.107-.107-.22-.165-.328.084.154.118.351.044.075-.029-.1-.06-.229-.1-.333-.14-.393-.052.285,0,.067a1.058,1.058,0,0,0-.006-.238c-.031-.494-.117.5.014.041a2.4,2.4,0,0,0-4.629-1.276Z"></path>
        <path class="c"
            d="M252.6,169.56a3.175,3.175,0,0,1,.34-.346c-.044.036-.224.165,0,.023a2.337,2.337,0,0,1,.319-.172c-.1.043-.336.16.117-.009,0,0,.4-.092.171-.053s.177-.015.183-.016c.164,0,.909.035.645-.006a3.274,3.274,0,0,1,2.468,1.506,3.352,3.352,0,0,1,.487.964,2.418,2.418,0,0,1,.088.374c-.042-.392-.024.077-.038.1.011-.021.095-.327-.022-.043-.165.4.285-.489-.128.262-.683,1.242-1.33,2.49-2.092,3.688-1.167,1.835-2.475,3.6-3.7,5.4-.294.432-.592.862-.9,1.284l-.276.374c-.012.016-.242.31-.085.111.087-.109-.294.352-.405.477-.139.156-.285.3-.431.453-.291.3-.226.055.041,0a2.325,2.325,0,0,0-.49.265c-.058.023-.632.177-.861.219-.278.051-.1.019-.041.013-.181.019-.366.025-.548.026a3.909,3.909,0,0,1-.54-.022c.252.035-.052-.032-.135-.045-.05-.009-.433-.155-.124-.016a4.037,4.037,0,0,1-.375-.22c-.036-.021-.278-.226-.082-.058.234.2-.188-.2-.228-.242-.011-.011-.25-.286-.1-.1s-.209-.339-.205-.331-.181-.348-.092-.15c.072.158-.084-.253-.1-.3a1.436,1.436,0,0,1-.1-.7,3.435,3.435,0,0,1,.172-1.065c.818-2.983-3.812-4.256-4.628-1.276-1.008,3.68.693,8.18,4.712,9.116a8.6,8.6,0,0,0,5.874-.787,9.668,9.668,0,0,0,2.915-2.941c.847-1.127,1.614-2.311,2.4-3.483.806-1.207,1.7-2.349,2.48-3.574a22.1,22.1,0,0,0,2.7-5.1c.626-2.078-.29-4.238-1.576-5.848-2.6-3.249-8.136-4.522-11.207-1.147a2.452,2.452,0,0,0,0,3.394,2.424,2.424,0,0,0,3.394,0Z"></path>
        <path class="c"
            d="M233.5,176.3c-.206,4.05,2.892,7.9,7.15,7.695,4.462-.215,6.631-5.4,8.7-8.621,1.159-1.805,2.349-3.6,3.339-5.508a13.379,13.379,0,0,0,1.861-5.588c.091-4.594-5.065-7.312-9.108-6.384-2.294.527-3.844,2.112-5.243,3.886a55.387,55.387,0,0,0-3.564,4.943c-1.64,2.628,2.511,5.041,4.144,2.423a27.327,27.327,0,0,1,4.447-5.878,2.979,2.979,0,0,1,2.916-.669,2.882,2.882,0,0,1,1.244.823c.232.262.084.06.238.354.237.454.078.174.046.079a3.2,3.2,0,0,1,.113.433c-.105-.58-.038-.019-.033-.01-.007-.012.087-.48.021-.118a8.7,8.7,0,0,1-.222.9,10.3,10.3,0,0,1-.658,1.694,42.157,42.157,0,0,1-2.4,4.185c-.939,1.489-1.909,2.958-2.837,4.454a15.688,15.688,0,0,1-2.284,3.257,1.92,1.92,0,0,1-1,.559,1.63,1.63,0,0,1-.362-.02c.463.061-.049-.039-.137-.069-.109-.038-.221-.064-.328-.106.366.143-.094-.065-.164-.106a1.887,1.887,0,0,1-.831-.861,3.819,3.819,0,0,1-.253-1.744,2.4,2.4,0,0,0-4.8,0Z"></path>
    </g>
</svg>